<svg xmlns="http://www.w3.org/2000/svg" version="1.1" xmlns:xlink="http://www.w3.org/1999/xlink" xmlns:svgjs="http://svgjs.dev/svgjs" width="1440" height="720" preserveAspectRatio="none" viewBox="0 0 1440 720"><g mask="url(&quot;#SvgjsMask1585&quot;)" fill="none"><rect width="1440" height="720" x="0" y="0" fill="rgba(213, 227, 251, 1)"></rect><path d="M1560 720L0 720 L0 488.81Q33.26 402.07, 120 435.33Q156.77 400.1, 192 436.86Q274.56 399.43, 312 481.99Q338.9 436.89, 384 463.8Q461.57 421.38, 504 498.95Q552.54 475.49, 576 524.02Q616.32 444.34, 696 484.66Q733.9 402.57, 816 440.47Q857.71 410.18, 888 451.89Q960.03 403.92, 1008 475.96Q1037.69 433.65, 1080 463.35Q1104.91 416.26, 1152 441.18Q1209.53 426.71, 1224 484.24Q1274.28 462.52, 1296 512.81Q1343.4 488.21, 1368 535.61Q1370.94 466.56, 1440 469.5Q1506.58 416.07, 1560 482.65z" fill="rgba(124, 185, 255, 1)"></path><path d="M1512 720L0 720 L0 658.92Q44.19 583.11, 120 627.3Q121.97 557.27, 192 559.24Q221.51 516.75, 264 546.27Q371.22 533.49, 384 640.71Q425.94 610.65, 456 652.59Q487.89 564.48, 576 596.37Q628.3 528.67, 696 580.98Q730.38 495.36, 816 529.73Q881.94 475.67, 936 541.61Q1009.96 543.57, 1008 617.52Q1074.95 564.47, 1128 631.42Q1156.38 539.81, 1248 568.19Q1273.01 521.2, 1320 546.21Q1350.2 504.41, 1392 534.62Q1467.39 490.01, 1512 565.41z" fill="rgba(66, 141, 235, 1)"></path><path d="M1512 720L0 720 L0 758.19Q-10.2 675.99, 72 665.79Q97.18 618.97, 144 644.16Q229.57 609.73, 264 695.3Q305.58 664.88, 336 706.45Q392.89 691.35, 408 748.24Q436.56 704.8, 480 733.35Q486.79 668.14, 552 674.94Q581.4 632.35, 624 661.75Q641.96 607.71, 696 625.68Q779.51 589.19, 816 672.71Q888.04 672.75, 888 744.79Q953 689.79, 1008 754.8Q1019.06 645.86, 1128 656.92Q1148.45 605.37, 1200 625.81Q1265.52 571.33, 1320 636.84Q1364.49 609.34, 1392 653.83Q1459.99 601.82, 1512 669.81z" fill="rgba(40, 71, 120, 1)"></path></g><defs><mask id="SvgjsMask1585"><rect width="1440" height="720" fill="#ffffff"></rect></mask></defs></svg>